<?xml version="1.0" encoding="iso-8859-1"?>
<!-- Generator: Adobe Illustrator 19.0.0, SVG Export Plug-In . SVG Version: 6.00 Build 0)  -->
<svg version="1.1" id="Capa_1" xmlns="http://www.w3.org/2000/svg" xmlns:xlink="http://www.w3.org/1999/xlink" x="0px" y="0px"
	 viewBox="0 0 512.003 512.003" style="enable-background:new 0 0 512.003 512.003;" xml:space="preserve">
<circle style="fill:#80D5FF;" cx="256.001" cy="256.002" r="256.001"/>
<g>
	<path style="fill:#B4E7FC;" d="M491.201,154.802h-36.345c-7.234,0-13.099,5.865-13.099,13.099c0,7.234,5.864,13.099,13.099,13.099
		h20.354c7.235,0,13.099,5.864,13.099,13.099c0,7.235-5.864,13.099-13.099,13.099c-10.327,0-72.903,0-81.952,0
		c-7.235,0-13.099,5.865-13.099,13.099c0,7.235,5.864,13.099,13.099,13.099c14.652,0,58.807,0,63.738,0
		c7.235,0,13.099,5.864,13.099,13.099c0,7.235-5.864,13.098-13.099,13.098h-5.517c-7.235,0-13.099,5.865-13.099,13.099
		c0,7.234,5.864,13.099,13.099,13.099h58.78c1.133-9.776,1.736-19.713,1.736-29.794
		C511.996,220.051,504.575,185.844,491.201,154.802z"/>
	<path style="fill:#B4E7FC;" d="M46.337,109.098h96.168c7.234,0,13.099-5.865,13.099-13.1c0-7.234-5.865-13.099-13.099-13.099
		h-5.517c-7.235,0-13.099-5.864-13.099-13.098c0-7.235,5.864-13.099,13.099-13.099c4.931,0,49.087,0,63.738,0
		c7.235,0,13.099-5.865,13.099-13.099c0-7.235-5.864-13.099-13.099-13.099c-6.78,0-43.619,0-66.005,0
		C99.483,49.498,69.211,76.512,46.337,109.098z"/>
</g>
<path style="fill:#647892;" d="M73.01,434.991c100.314,102.542,265.396,102.82,365.983,0H73.01z"/>
<polygon style="fill:#8C9DAD;" points="425.437,168.047 425.437,57.265 361.401,57.265 361.401,104.012 "/>
<polygon style="fill:#7389A0;" points="393.42,136.03 393.42,57.265 361.401,57.265 361.401,104.012 "/>
<polygon style="fill:#647892;" points="432.389,33.738 354.621,33.738 361.401,59.34 425.437,59.34 "/>
<polygon style="fill:#4D6682;" points="354.621,33.738 361.401,59.34 393.334,59.34 386.552,33.738 "/>
<path style="fill:#8C9DAD;" d="M433.365,34.698h-79.89c-7.361,0-13.328-5.967-13.328-13.328l0,0c0-7.361,5.967-13.328,13.328-13.328
	h79.89c7.361,0,13.328,5.967,13.328,13.328l0,0C446.693,28.731,440.725,34.698,433.365,34.698z"/>
<path style="fill:#7389A0;" d="M375.423,21.37c0-7.361,5.967-13.328,13.328-13.328h-35.276c-7.361,0-13.328,5.967-13.328,13.328
	s5.967,13.328,13.328,13.328h35.276C381.389,34.698,375.423,28.731,375.423,21.37z"/>
<path style="fill:#FAC149;" d="M433.352,423.7c0-46.687,0-208.043,0-214.984L256.249,31.613L256,32.94v-1.327L78.897,208.717v14.403
	c0,7.594,0,156.019,0,200.581h354.456V423.7z"/>
<path style="fill:#F8A748;" d="M121.529,229.229c0-4.498,1.787-8.812,4.967-11.992l157.69-157.689l-27.936-27.936L256,32.94v-1.327
	L78.897,208.717v14.403c0,7.594,0,156.018,0,200.581h42.631c0-44.562,0-179.5,0-187.093v-7.379H121.529z"/>
<path style="fill:#BC7D4D;" d="M447.737,226.508L256,34.772L64.264,226.508c-5.624,5.624-14.744,5.624-20.369,0
	c-5.626-5.626-5.626-14.743,0-20.369L245.816,4.218c5.624-5.624,14.744-5.624,20.369,0l201.921,201.921
	c5.626,5.626,5.626,14.743,0,20.369S453.361,232.132,447.737,226.508z"/>
<path style="fill:#AD7147;" d="M256,34.773l0.037,0.036l13.685-13.685c2.561-2.561,5.847-3.942,9.197-4.171L266.185,4.218
	c-5.624-5.623-14.744-5.623-20.369,0L43.895,206.139c-5.626,5.624-5.626,14.743,0,20.369c5.624,5.624,14.745,5.624,20.369,0
	L256,34.773z"/>
<path style="fill:#647892;" d="M229.209,423.7V253.91c0-3.683-2.986-6.669-6.669-6.669h-94.342c-3.683,0-6.67,2.986-6.67,6.669
	V423.7H229.209z"/>
<path style="fill:#4D6682;" d="M177.603,247.24h-49.405c-3.683,0-6.669,2.986-6.669,6.669v169.79h49.405V253.91
	C170.934,250.226,173.92,247.24,177.603,247.24z"/>
<path style="fill:#EFEFEF;" d="M222.539,245.166h-94.341c-3.683,0-6.67,2.986-6.67,6.669v45.469h107.68v-45.469
	C229.209,248.152,226.223,245.166,222.539,245.166z"/>
<g>
	<path style="fill:#DDDDDD;" d="M177.603,245.165h-49.405c-3.683,0-6.669,2.986-6.669,6.669v45.47h49.405v-45.47
		C170.934,248.151,173.92,245.165,177.603,245.165z"/>
	<rect x="121.527" y="263.451" style="fill:#DDDDDD;" width="107.675" height="15.563"/>
</g>
<rect x="121.527" y="263.451" style="fill:#CECCCA;" width="49.405" height="15.563"/>
<path style="fill:#768999;" d="M150.702,369.151c-4.297,0-7.781-3.483-7.781-7.781v-15.217c0-4.297,3.484-7.782,7.781-7.782
	c4.297,0,7.782,3.484,7.782,7.782v15.217C158.484,365.667,155,369.151,150.702,369.151z"/>
<path style="fill:#8C9DAD;" d="M163.153,361.542h-12.45c-4.297,0-7.781-3.483-7.781-7.782c0-4.298,3.484-7.781,7.781-7.781h12.45
	c4.297,0,7.781,3.483,7.781,7.781C170.934,358.058,167.45,361.542,163.153,361.542z"/>
<path style="fill:#EFEFEF;" d="M59.945,420.588c8.678,10.327,18.145,19.966,28.33,28.806h335.452
	c10.183-8.84,19.652-18.481,28.33-28.806H59.945z"/>
<path style="fill:#80D5FF;" d="M380.716,361.957H277.214c-7.332,0-13.275-5.944-13.275-13.276v-81.654
	c0-7.332,5.944-13.275,13.275-13.275h103.502c7.332,0,13.276,5.944,13.276,13.275v81.654
	C393.992,356.013,388.048,361.957,380.716,361.957z"/>
<path style="fill:#64C4FF;" d="M328.965,253.75h-51.751c-7.332,0-13.276,5.944-13.276,13.276v81.654
	c0,7.332,5.944,13.276,13.276,13.276h51.751V253.75z"/>
<path style="fill:#57A7FF;" d="M299.548,348.681v-81.654c0-5.031,1.777-9.65,4.731-13.276h-27.065
	c-7.332,0-13.276,5.944-13.276,13.276v81.654c0,7.332,5.944,13.275,13.276,13.275h27.065
	C301.326,358.331,299.548,353.712,299.548,348.681z"/>
<path style="fill:#BC7D4D;" d="M380.716,369.738H277.214c-11.611,0-21.057-9.446-21.057-21.058v-81.654
	c0-11.611,9.446-21.058,21.057-21.058h103.502c11.611,0,21.057,9.446,21.057,21.058v81.654
	C401.773,360.293,392.327,369.738,380.716,369.738z M277.214,261.532c-3.03,0-5.494,2.465-5.494,5.495v81.654
	c0,3.03,2.464,5.495,5.494,5.495h103.502c3.03,0,5.494-2.465,5.494-5.495v-81.654c0-3.03-2.464-5.495-5.494-5.495L277.214,261.532
	L277.214,261.532z"/>
<path style="fill:#AD7147;" d="M300.3,354.175h-23.086c-3.03,0-5.494-2.465-5.494-5.495v-81.654c0-3.03,2.464-5.495,5.494-5.495
	H300.3c2.426-8.951,10.597-15.563,20.305-15.563h-43.392c-11.611,0-21.057,9.447-21.057,21.058v81.654
	c0,11.611,9.446,21.058,21.057,21.058h43.392C310.897,369.738,302.726,363.126,300.3,354.175z"/>
<path style="fill:#95DB1B;" d="M503.996,319.735c-0.421-0.21-0.851-0.407-1.298-0.574c-52.954-19.819-114.545-13.305-163.388,22.824
	s-73.097,93.117-69.647,149.552c0.333,5.442,3.87,10.223,8.976,12.134c5.5,2.058,11.098,3.816,16.761,5.303
	C396.985,493.282,478.847,417.872,503.996,319.735z"/>
<path style="fill:#8DC610;" d="M339.31,341.986c-48.843,36.129-73.098,93.117-69.647,149.552c0.119,1.955,0.658,3.821,1.529,5.503
	c10.653-29.359,69.276-167.364,226.826-157.437c2.248-6.508,4.251-13.133,5.976-19.868c-0.421-0.21-0.851-0.407-1.298-0.574
	C449.744,299.344,388.153,305.857,339.31,341.986z"/>
<path style="fill:#ABE84B;" d="M503.996,319.735c-0.421-0.21-0.851-0.407-1.298-0.574c-29.589-11.075-61.874-13.919-93.127-7.976
	c-13.865,27.95-24.921,52.574-23.026,83.555c0.341,5.592,3.977,10.506,9.225,12.47c16.704,6.252,35.836,12.097,54.931,14.98
	C475.658,392.982,494.164,358.099,503.996,319.735z"/>
<path style="fill:#95DB1B;" d="M495.643,316.714c-28.253-9.2-58.002-10.862-86.072-5.528c-8.216,16.563-15.445,31.958-19.578,48.2
	c29.318-14.146,64.966-22.496,108.019-19.784c2.306-6.675,4.452-13.888,5.983-19.867
	C502.137,318.81,497.606,317.353,495.643,316.714z"/>
<path style="fill:#ABE84B;" d="M334.845,453.718c-5.363-2.751-9.54-8.399-10.602-14.331c-6.742-37.7,1.729-67.704,15.677-97.835
	c-0.201,0.148-0.408,0.286-0.609,0.436c-48.843,36.129-73.098,93.117-69.647,149.552c0.333,5.442,3.87,10.223,8.976,12.134
	c5.5,2.058,11.099,3.816,16.76,5.303c33.626-5.195,65.091-16.932,93.053-33.872C370.118,470.049,351.661,462.345,334.845,453.718z"
	/>
<path style="fill:#95DB1B;" d="M269.867,493.146c0.075,0.41,0.162,0.816,0.273,1.214c0.004,0.013,0.006,0.028,0.01,0.042
	c0.126,0.447,0.275,0.886,0.444,1.317c0.009,0.025,0.021,0.05,0.03,0.075c0.17,0.426,0.359,0.844,0.569,1.249
	c4.931-13.592,20.156-50.465,50.703-85.168c0.295-25.521,7.637-47.888,18.023-70.322c-0.058,0.043-0.117,0.083-0.175,0.126
	c-0.145,0.103-0.29,0.204-0.434,0.31c-45.145,33.394-69.971,85.233-69.969,138.968c0,3.527,0.108,7.055,0.324,10.583
	c0.027,0.441,0.082,0.876,0.15,1.306C269.831,492.945,269.849,493.046,269.867,493.146z"/>
<path style="fill:#8DC610;" d="M459.857,362.36c-2.218-4.584-7.732-6.503-12.318-4.283c-1.508,0.729-37.43,18.207-81.938,48.343
	c-50.587,34.253-90.137,69.628-117.916,105.424c7.414,0.237,14.573,0.231,24.138-0.353
	c69.205-80.734,182.475-136.194,183.75-136.811C460.158,372.461,462.076,366.945,459.857,362.36z"/>
<path style="fill:#95DB1B;" d="M8.006,319.735c0.421-0.21,0.851-0.407,1.298-0.574c52.954-19.819,114.545-13.305,163.388,22.824
	s73.097,93.117,69.647,149.552c-0.333,5.442-3.87,10.223-8.976,12.134c-5.5,2.058-11.099,3.816-16.761,5.303
	C115.017,493.282,33.154,417.872,8.006,319.735z"/>
<path style="fill:#8DC610;" d="M172.691,341.986c48.843,36.129,73.098,93.117,69.647,149.552c-0.119,1.955-0.658,3.821-1.529,5.503
	C176.818,320.689,16.504,352.896,8.006,319.735c0.421-0.21,0.851-0.407,1.298-0.574C62.258,299.344,123.848,305.857,172.691,341.986
	z"/>
<path style="fill:#ABE84B;" d="M8.006,319.735c0.421-0.21,0.851-0.407,1.298-0.574c29.589-11.075,61.874-13.919,93.127-7.976
	c13.865,27.95,24.921,52.574,23.026,83.555c-0.341,5.592-3.977,10.506-9.225,12.47c-16.704,6.252-35.836,12.097-54.931,14.98
	C36.344,392.982,17.837,358.099,8.006,319.735z"/>
<path style="fill:#95DB1B;" d="M14.608,317.28c27.292-9.201,57.542-11.848,87.822-6.092c8.216,16.563,15.445,31.958,19.578,48.2
	c-89.375-43.124-102.681,4.537-114.002-39.651C9.296,319.093,11.426,318.354,14.608,317.28z"/>
<path style="fill:#ABE84B;" d="M177.157,453.718c5.363-2.751,9.54-8.399,10.602-14.331c6.742-37.7-1.729-67.704-15.677-97.835
	c0.202,0.148,0.408,0.286,0.609,0.436c48.843,36.129,73.098,93.117,69.647,149.552c-0.333,5.442-3.87,10.223-8.976,12.134
	c-5.5,2.058-11.098,3.816-16.76,5.303c-33.626-5.195-65.091-16.932-93.053-33.872C141.883,470.049,160.34,462.345,177.157,453.718z"
	/>
<path style="fill:#95DB1B;" d="M240.808,497.041c-4.931-13.592-20.156-50.465-50.703-85.168
	c-0.294-25.521-7.637-47.888-18.023-70.322c0.058,0.043,0.117,0.083,0.175,0.126c0.145,0.103,0.29,0.204,0.434,0.31
	c45.031,33.31,69.971,85.121,69.969,138.968c0,3.527-0.108,7.055-0.324,10.583C242.225,493.36,241.713,495.292,240.808,497.041z"/>
<path style="fill:#8DC610;" d="M52.144,362.36c2.218-4.584,7.731-6.503,12.318-4.283c1.508,0.729,37.43,18.207,81.938,48.343
	c50.587,34.253,90.137,69.628,117.916,105.424c-7.414,0.237-14.573,0.231-24.138-0.353
	C170.972,430.759,57.702,375.298,56.427,374.68C51.843,372.461,49.925,366.945,52.144,362.36z"/>
<g>
</g>
<g>
</g>
<g>
</g>
<g>
</g>
<g>
</g>
<g>
</g>
<g>
</g>
<g>
</g>
<g>
</g>
<g>
</g>
<g>
</g>
<g>
</g>
<g>
</g>
<g>
</g>
<g>
</g>
</svg>
